<svg id="Layer_1" enable-background="new 0 0 512 512" viewBox="0 0 512 512" xmlns="http://www.w3.org/2000/svg"><g><path d="m358.7 210.7c0 3.4-.3 6.9-.9 10.4-.6 3.6-1.3 7.1-2.2 10.4-.9 3.4-1.9 6.6-3 9.6s-2.1 5.5-3 7.6c-6.2 3.9-13.8 7.8-22.8 11.6-8.9 3.8-19 7.3-30.3 10.4s-23.5 5.5-36.8 7.4-27.4 2.8-42.4 2.8c-8.6 0-16.8-1-24.5-3s-14.6-5.1-20.4-9.2-10.5-9.2-14-15.4-5.2-13.4-5.2-21.8c0-5.5.7-10.6 2.1-15.4s3.1-9 5-12.6 3.7-6.4 5.4-8.6c1.7-2.1 2.9-3.2 3.5-3.2.8 0 1.2.4 1.2 1.2-1.3 2.9-2.4 5.3-3.2 7.2-.8 2-1.6 4.2-2.2 6.8-.7 2.6-1 5.5-1 8.8 0 5.6 1.4 10.9 4.1 16s6.8 9.6 12.2 13.5 12.1 7 20.1 9.3 17.3 3.4 27.8 3.4c10 0 20.7-.8 31.9-2.4 11.3-1.6 22.2-3.7 32.9-6.3s20.7-5.6 30-9 17.1-6.8 23.3-10.4c0-5.6-.8-11-2.3-16.2-1.6-5.2-3.8-9.8-6.8-13.7 0-1.6.3-3.5.9-6 .6-2.4 1.3-4.8 2.1-7.3s1.6-4.8 2.5-7.1 1.8-4.1 2.5-5.4c1 1 2.3 2.8 3.9 5.4s3.1 5.5 4.5 8.8 2.6 6.9 3.6 10.7c1 3.9 1.5 7.8 1.5 11.7zm-99.6 93.2 19.7 13.5-10 20.5-19.5-13.5z"/></g></svg>